0
SECTION
2
HEADER
9
$INSUNITS
70
4
9
$ACADVER
1
AC1014
9
$HANDSEED
5
FFFF
0
ENDSEC
0
SECTION
2
TABLES
0
TABLE
2
VPORT
5
8
100
AcDbSymbolTable
0
ENDTAB
0
TABLE
2
LTYPE
5
5
100
AcDbSymbolTable
0
LTYPE
5
14
100
AcDbSymbolTableRecord
100
AcDbLinetypeTableRecord
2
BYBLOCK
70
0
0
LTYPE
5
15
100
AcDbSymbolTableRecord
100
AcDbLinetypeTableRecord
2
BYLAYER
70
0
0
ENDTAB
0
TABLE
2
LAYER
5
2
100
AcDbSymbolTable
70
2
0
LAYER
5
50
100
AcDbSymbolTableRecord
100
AcDbLayerTableRecord
2
0
70
0
6
CONTINUOUS
0
ENDTAB
0
TABLE
2
STYLE
5
3
100
AcDbSymbolTable
70
1
0
STYLE
5
11
100
AcDbSymbolTableRecord
100
AcDbTextStyleTableRecord
2
STANDARD
70
0
0
ENDTAB
0
TABLE
2
VIEW
5
6
100
AcDbSymbolTable
70
0
0
ENDTAB
0
TABLE
2
UCS
5
7
100
AcDbSymbolTable
70
0
0
ENDTAB
0
TABLE
2
APPID
5
9
100
AcDbSymbolTable
70
2
0
APPID
5
12
100
AcDbSymbolTableRecord
100
AcDbRegAppTableRecord
2
ACAD
70
0
0
ENDTAB
0
TABLE
2
DIMSTYLE
5
A
100
AcDbSymbolTable
70
1
0
ENDTAB
0
TABLE
2
BLOCK_RECORD
5
1
100
AcDbSymbolTable
70
1
0
BLOCK_RECORD
5
1F
100
AcDbSymbolTableRecord
100
AcDbBlockTableRecord
2
*MODEL_SPACE
0
BLOCK_RECORD
5
1B
100
AcDbSymbolTableRecord
100
AcDbBlockTableRecord
2
*PAPER_SPACE
0
ENDTAB
0
ENDSEC
0
SECTION
2
BLOCKS
0
BLOCK
5
20
100
AcDbEntity
100
AcDbBlockBegin
2
*MODEL_SPACE
0
ENDBLK
5
21
100
AcDbEntity
100
AcDbBlockEnd
0
BLOCK
5
1C
100
AcDbEntity
100
AcDbBlockBegin
2
*PAPER_SPACE
0
ENDBLK
5
1D
100
AcDbEntity
100
AcDbBlockEnd
0
ENDSEC
0
SECTION
2
ENTITIES
0
LWPOLYLINE
5
100
100
AcDbEntity
8
0
100
AcDbPolyline
90
567
70
1
43
0.0
10
303.1479999261702
20
18.445435029279608
10
304.43601136027985
20
17.193705607398453
10
305.69898820595188
20
15.916215956835099
10
306.35750672789806
20
14.274454903498221
10
306.4333361334555
20
12.522759353109167
10
306.50952835913523
20
10.74566639416021
10
306.4333361334555
20
8.9663965144775428
10
306.50989117925752
20
7.1639061469686744
10
306.4590963621377
20
5.3849990874082927
10
306.40866436514011
20
3.5806946192880029
10
306.38362977670255
20
1.7767529712899983
10
306.40902718526246
20
-0.0010656279035303751
10
306.35859518826487
20
-1.805370096023819
10
306.3081631912674
20
-3.6096745641441084
10
306.28312860282966
20
-5.4136162121421147
10
306.2323337857099
20
-7.1925232717024956
10
306.23269660583213
20
-8.9961020995782164
10
306.25845683451433
20
-10.799318107331652
10
306.30961447175645
20
-12.602171294962805
10
306.18262742895695
20
-14.382166814890041
10
306.15723002039704
20
-16.160711054328139
10
305.72438561451179
20
-17.868868190043067
10
305.13879393714478
20
-19.553804837931786
10
304.40009216817373
20
-21.1901235894344
10
303.50791748747633
20
-22.752427035990998
10
302.5384621207325
20
-24.239626717234735
10
301.36401338489793
20
-25.602741916657198
10
300.0350032769702
20
-26.815649585453922
10
298.60222661406914
20
-27.877624083380347
10
297.01452575895252
20
-28.763993642121118
10
295.39925057454252
20
-29.498341569624728
10
293.67912037479221
20
-30.005564100578312
10
291.90529279694374
20
-30.310333003297202
10
290.12892547823935
20
-30.437320046096744
10
288.32607229060818
20
-30.488477683338843
10
286.52285628285483
20
-30.514237912021038
10
284.71964027510137
20
-30.539998140703229
10
282.91606144722562
20
-30.540360960825513
10
281.13860566815441
20
-30.591155777945328
10
279.33538966040089
20
-30.61691600662752
10
277.53217365264754
20
-30.642676235309715
10
275.72895764489408
20
-30.668436463991906
10
273.92501599689604
20
-30.643401875554282
10
272.14683457758025
20
-30.643401875554275
10
270.34289292958226
20
-30.618367287116651
10
268.56398587002184
20
-30.567572469996843
10
266.76040704214608
20
-30.56793529011912
10
264.95646539414815
20
-30.542900701681504
10
263.17792115471002
20
-30.517503293121596
10
261.37470514695661
20
-30.543263521803787
10
259.59652372764077
20
-30.543263521803791
10
257.79330771988737
20
-30.569023750485982
10
255.9900917121339
20
-30.594783979168177
10
254.1868757043805
20
-30.620544207850369
10
252.38329687650477
20
-30.620907027972653
10
250.60511545718896
20
-30.620907027972653
10
248.80189944943552
20
-30.646667256654844
10
247.024080850242
20
-30.672064665214755
10
245.22086484248854
20
-30.697824893896943
10
243.41764883473513
20
-30.723585122579134
10
241.61443282698173
20
-30.749345351261326
10
239.81121681922821
20
-30.775105579943517
10
238.0080008114748
20
-30.800865808625709
10
236.20514762384369
20
-30.852023445867811
10
234.4019316160902
20
-30.877783674550003
10
232.59835278821453
20
-30.878146494672286
10
230.84339185672493
20
-30.725399223190557
10
229.15881802895848
20
-30.165204954383455
10
227.49746468901822
20
-29.452263414094624
10
226.03493677608984
20
-28.431650410108627
10
224.57277168328375
20
-27.436434814682535
10
222.88783503539503
20
-26.850843137315522
10
221.13069718317172
20
-26.545711414474344
10
219.32639271505141
20
-26.495279417476819
10
217.54821129573557
20
-26.495279417476816
10
215.7446324678599
20
-26.4956422375991
10
213.96645104854406
20
-26.4956422375991
10
212.16359786091286
20
-26.546799874841199
10
210.36038185315942
20
-26.572560103523397
10
208.55716584540605
20
-26.598320332205585
10
206.75358701753029
20
-26.598683152327865
10
204.97576841833677
20
-26.624080560887773
10
203.17255241058334
20
-26.649840789569964
10
201.36969922295214
20
-26.700998426812067
10
199.56648321519873
20
-26.726758655494262
10
197.76363002756761
20
-26.777916292736364
10
195.98544860825177
20
-26.777916292736364
10
194.18223260049837
20
-26.803676521418556
10
192.3790165927449
20
-26.829436750100747
10
190.5758005849915
20
-26.855196978782942
10
188.77258457723804
20
-26.880957207465134
10
186.99512879816677
20
-26.931752024584945
10
185.19191279041334
20
-26.957512253267137
10
183.38833396253764
20
-26.957875073389424
10
181.58475513466189
20
-26.958237893511708
10
179.8069365354684
20
-26.983635302071608
10
178.00372052771496
20
-27.0093955307538
10
176.20050451996147
20
-27.035155759435995
10
174.39765133233035
20
-27.086313396678094
10
172.59443532457695
20
-27.112073625360292
10
170.7904936765789
20
-27.087039036922672
10
169.01267507738538
20
-27.112436445482576
10
167.20945906963198
20
-27.138196674164767
10
165.40624306187848
20
-27.163956902846959
10
163.60302705412511
20
-27.18971713152915
10
161.79981104637167
20
-27.215477360211345
10
159.996232218496
20
-27.215840180333622
10
158.21841361930245
20
-27.241237588893533
10
156.41519761154899
20
-27.266997817575724
10
154.61198160379556
20
-27.292758046257916
10
152.80876559604212
20
-27.318518274940111
10
151.00554958828869
20
-27.344278503622302
10
149.22773098909516
20
-27.36967591218221
10
147.4245149813417
20
-27.395436140864401
10
145.62129897358827
20
-27.421196369546593
10
143.81772014571257
20
-27.421559189668876
10
142.01450413795914
20
-27.447319418351071
10
140.2112881302057
20
-27.473079647033263
10
138.43346953101215
20
-27.49847705559317
10
136.63025352325874
20
-27.524237284275365
10
134.82667469538302
20
-27.524600104397649
10
133.02345868762953
20
-27.550360333079841
10
131.22024267987612
20
-27.576120561762032
10
129.4424240806826
20
-27.60151797032194
10
127.63920807292918
20
-27.627278199004131
10
125.83599206517574
20
-27.653038427686326
10
124.03277605742231
20
-27.678798656368517
10
122.22919722954659
20
-27.679161476490805
10
120.45137863035306
20
-27.704558885050716
10
118.64779980247734
20
-27.704921705172993
10
116.8445837947239
20
-27.730681933855188
10
115.04173060709275
20
-27.78183957109729
10
113.23815177921702
20
-27.78220239121957
10
111.46033318002347
20
-27.807599799779474
10
109.65711717227006
20
-27.833360028461666
10
107.8539011645166
20
-27.859120257143857
10
106.05104797688546
20
-27.910277894385963
10
104.24746914900976
20
-27.910640714508244
10
102.4700133699385
20
-27.961435531628066
10
100.66643454206277
20
-27.961798351750346
10
98.862855714187049
20
-27.962161171872634
10
97.085037114993526
20
-27.987558580432541
10
95.2814582871178
20
-27.987921400554828
10
93.503276867801986
20
-27.987921400554825
10
91.700423680170857
20
-28.039079037796931
10
89.896844852295118
20
-28.039441857919208
10
88.119026253101595
20
-28.064839266479112
10
86.315810245348132
20
-28.090599495161307
10
84.512231417472421
20
-28.090962315283594
10
82.734412818278884
20
-28.116359723843509
10
80.931196810525449
20
-28.1421199525257
10
79.130157723505732
20
-28.320264632567334
10
77.40930188351085
20
-28.776692346401095
10
75.768629290540844
20
-29.511403094026999
10
74.283969350153086
20
-30.497911006518255
10
72.980719470907545
20
-31.735853263752617
10
71.754750277708595
20
-33.048899286299836
10
70.399254300854082
20
-34.185977549539132
10
68.836950854297484
20
-35.071984288157616
10
67.142218063107094
20
-35.578843998988908
10
65.365487924280416
20
-35.680433633228539
10
63.587306504964609
20
-35.680433633228539
10
61.807310985037375
20
-35.553446590429012
10
60.002280876672515
20
-35.452219776311658
10
58.222648176867565
20
-35.350630142072028
10
56.442289836818034
20
-35.198245690712582
10
54.661568676646233
20
-35.020463830793233
10
52.855812928036805
20
-34.868442199556064
10
51.076180228231863
20
-34.766852565316441
10
49.295821888182338
20
-34.614468113956988
10
47.490428959695194
20
-34.487843891279738
10
45.711159080012528
20
-34.411651665600019
10
43.905040511280816
20
-34.234232625802946
10
42.125770631598144
20
-34.158040400123234
10
40.32001488298873
20
-34.006018768886072
10
38.54038218318378
20
-33.904429134646435
10
36.73535207481892
20
-33.803202320529088
10
34.955356554891686
20
-33.676215277729554
10
33.174635394719886
20
-33.498433417810197
10
31.369242466232738
20
-33.371809195132947
10
29.588884126183217
20
-33.219424743773509
10
27.80888860625598
20
-33.092437700973967
10
26.028530266206452
20
-32.940053249614522
10
24.222774517597038
20
-32.788031618377367
10
22.442778997669805
20
-32.661044575577819
10
20.637386069182657
20
-32.534420352900561
10
18.858116189499988
20
-32.458228127220849
10
17.077757849450467
20
-32.305843675861404
10
15.273090561207896
20
-32.230014270303968
10
13.493457861402947
20
-32.128424636064338
10
11.688064932915802
20
-32.00180041338708
10
9.9080694129885689
20
-31.874813370587546
10
8.1280738930613339
20
-31.747826327788005
10
6.3705732207157304
20
-31.417297196386919
10
4.7596518777730239
20
-30.678232607293616
10
3.8504246513283324
20
-29.268676432218751
10
2.5627760373410196
20
-28.042344418897493
10
1.7529615244022527
20
-26.478952511974043
10
1.6774949389670988
20
-24.752654370144903
10
1.7028923475270061
20
-22.974110130706805
10
1.727926935964629
20
-21.170168482708796
10
1.7533243445245363
20
-19.391624243270698
10
1.6767692987225291
20
-17.589133875761831
10
1.7275641158423438
20
-15.81022681620145
10
1.7272012957200595
20
-14.006647988325732
10
1.7525987042799667
20
-12.228103748887634
10
1.7268384755977744
20
-10.424887741134194
10
1.7518730640353974
20
-8.6209460931361885
10
1.7772704725953048
20
-6.8424018536980915
10
1.7769076524730201
20
-5.0388230258223734
10
1.8023050610329274
20
-3.2602787863842755
10
1.8273396494705507
20
-1.4563371383862704
10
1.8273396494705501
20
0.32184428092954287
10
1.8523742379081731
20
2.1257859289275478
10
1.8523742379081731
20
3.9039673482433606
10
1.8520114177858882
20
5.7075461761190827
10
1.8266140092259806
20
7.4853647753126111
10
1.8262511891036959
20
9.2889436031883292
10
1.8258883689814116
20
11.092522431064054
10
1.8258883689814112
20
12.870703850379865
10
1.8255255488591269
20
14.674282678255583
10
1.8255255488591262
20
16.452464097571401
10
1.8251627287368417
20
18.256042925447119
10
1.8251627287368413
20
20.034224344762933
10
1.824799908614557
20
21.837803172638655
10
1.8247999086145565
20
23.615984591954465
10
1.8247999086145565
20
25.394166011270279
10
1.824437088492272
20
27.197744839145997
10
1.8244370884922718
20
28.975926258461811
10
1.7986768598100797
20
30.779142266215246
10
1.8237114482477024
20
32.583083914213262
10
1.8237114482477021
20
34.361265333529069
10
1.8233486281254174
20
36.164844161404794
10
1.7979512195655099
20
37.942662760598317
10
1.8229858080031327
20
39.746604408596319
10
1.7972255793209406
20
41.54982041634976
10
1.9242126221204781
20
43.329815936276994
10
1.8984523934382858
20
45.133031944030428
10
1.8984523934382858
20
46.911213363346242
10
1.8726921647560935
20
48.714429371099676
10
1.8723293446338092
20
50.518008198975394
10
1.8723293446338092
20
52.296189618291216
10
1.8719665245115245
20
54.099768446166927
10
1.8973639330714316
20
55.878312685605032
10
1.8462062958293317
20
57.681165873236175
10
1.8712408842669548
20
59.485107521234177
10
1.8712408842669548
20
61.263288940549998
10
1.8708780641446696
20
63.066867768425723
10
1.8454806555847618
20
64.844686367619261
10
1.8197204269025695
20
66.647902375372681
10
1.8447550153401926
20
68.451844023370697
10
1.819357606780285
20
70.22966262256422
10
1.7935973780980929
20
72.032878630317668
10
1.8186319665357158
20
73.836820278315656
10
1.8436665549733389
20
75.640761926313658
10
1.8436665549733386
20
77.418943345629486
10
1.8433037348510541
20
79.222522173505197
10
1.8433037348510539
20
81.000703592820997
10
1.7921460976089543
20
82.803556780452169
10
1.8175435061688616
20
84.58210101989026
10
1.7917832774866693
20
86.385317027643694
10
1.791420457364385
20
88.188895855519419
10
1.7914204573643846
20
89.967077274835233
10
1.7402628201222849
20
91.769930462466377
10
1.7399000000000004
20
93.573509290342102
10
1.7399
20
95.351690709657916
10
1.7395371798777153
20
97.155269537533627
10
1.7649345884376229
20
98.933813776971732
10
1.7645717683153377
20
100.73739260484746
10
1.7391743597554301
20
102.51521120404098
10
1.6372219053935155
20
104.31733875142757
10
1.6622564938311388
20
106.12128039942556
10
1.6368590852712308
20
107.8990989986191
10
1.6618936737088541
20
109.7030406466171
10
1.6618936737088537
20
111.48122206593288
10
1.6361334450266609
20
113.28443807368635
10
1.6611680334642838
20
115.08837972168436
10
1.6611680334642842
20
116.86656114100016
10
1.6608052133419995
20
118.67013996887586
10
1.660805213341999
20
120.44832138819172
10
1.6604423932197148
20
122.25190021606743
10
1.6604423932197141
20
124.03008163538324
10
1.634682164537522
20
125.83329764313667
10
1.6343193444152377
20
127.63687647101241
10
1.6597167529751446
20
129.41542071045046
10
1.6593539328528601
20
131.21899953832622
10
1.6593539328528597
20
132.99718095764203
10
1.6339565242929521
20
134.77499955683555
10
1.6589911127305754
20
136.57894120483357
10
1.6840257011681987
20
138.38288285283156
10
1.6586282926082907
20
140.16070145202508
10
1.6836628810459136
20
141.96464310002307
10
1.6833000609236284
20
143.76822192789882
10
1.6833000609236284
20
145.54640334721466
10
1.6829372408013437
20
147.34998217509036
10
1.6575398322414361
20
149.12780077428388
10
1.6571770121191514
20
150.93137960215961
10
1.6314167834369591
20
152.73459560991304
10
1.6314167834369595
20
154.51277702922883
10
1.6310539633146746
20
156.31635585710458
10
1.6310539633146748
20
158.0945372764204
10
1.6052937346324827
20
159.89775328417383
10
1.6303283230701047
20
161.70169493217188
10
1.6303283230701051
20
163.47987635148763
10
1.6807603200676353
20
165.28418081960794
10
1.7057949085052593
20
167.08812246760596
10
1.6803974999453515
20
168.86594106679945
10
1.6800346798230663
20
170.6695198946752
10
1.8832139483023269
20
172.45060387496926
10
2.9571615102641315
20
173.73607556822287
10
4.208890932145291
20
175.02408700233241
10
5.486743402830923
20
176.26166643944458
10
7.1346723982466376
20
176.4884290158723
10
8.9360743053886544
20
176.64117628735403
10
10.712441624093042
20
176.76816333015353
10
12.514206351357341
20
176.89551319307532
10
14.316696718866206
20
176.9720682388774
10
16.09378967781517
20
177.04826046455713
10
17.896280045324037
20
177.12481551035916
10
19.673010184150716
20
177.22640514459874
10
21.475137731537295
20
177.32835759896068
10
23.25186787036397
20
177.42994723320032
10
25.026058268334658
20
177.70931872735929
10
26.802788407161337
20
177.81090836159891
10
28.604553134425636
20
177.93825822452072
10
30.38092045313002
20
178.06524526732028
10
32.155473671222992
20
178.3192193529193
10
33.957964038731859
20
178.39577439872136
10
35.734331357436247
20
178.52276144152086
10
37.536096084700546
20
178.65011130444273
10
39.337860811964838
20
178.77746116736455
10
41.139625539229137
20
178.90481103028634
10
42.915992857933531
20
179.03179807308589
10
44.717394765075554
20
179.18454534456765
10
46.519159492339853
20
179.31189520748944
10
48.29552681104424
20
179.438882250289
10
50.071894129748635
20
179.56586929308855
10
51.873296036890643
20
179.71861656457023
10
53.674697944032665
20
179.87136383605196
10
55.450339622492486
20
180.04914569597133
10
57.225981300952313
20
180.22692755589071
10
59.027383208094307
20
180.37967482737244
10
60.82914793535862
20
180.50702469029426
10
62.630912662622919
20
180.63437455321605
10
64.433040210009494
20
180.73632700757798
10
66.210133168958464
20
180.81251923325772
10
67.9661825608149
20
180.58357973609623
10
69.651482028825939
20
179.97259065016934
10
71.163353478384991
20
179.05429292066748
10
72.476399500932203
20
177.82832372746861
10
73.739013526481898
20
176.57623148546514
10
75.126800494219722
20
175.4529403868726
10
76.688741120654043
20
174.5861631147352
10
78.373677768542763
20
174.00057143736817
10
80.131178440888363
20
173.67004230596712
10
81.910448320571035
20
173.59385008028744
10
83.714389968569023
20
173.56881549184982
10
85.517605976322457
20
173.59457572053202
10
87.321547624320473
20
173.5695411320944
10
89.099366223514011
20
173.59493854065425
10
90.902945051389736
20
173.59530136077652
10
92.681489290827827
20
173.56990395221663
10
94.485068118703524
20
173.57026677233898
10
96.262886717897075
20
173.59566418089889
10
98.066465545772786
20
173.59602700102116
10
99.86968155352622
20
173.62178722970333
10
101.67326038140195
20
173.62215004982559
10
103.45107898059547
20
173.64754745838547
10
105.25502062859347
20
173.62251286994785
10
107.03320204790928
20
173.62251286994785
10
108.83678087578501
20
173.62287569007015
10
110.61459947497853
20
173.64827309863003
10
112.41781548273197
20
173.67403332731229
10
114.22103149048542
20
173.69979355599446
10
116.0249731384834
20
173.67475896755678
10
117.82855196635913
20
173.6751217876791
10
119.60673338567496
20
173.6751217876791
10
121.40994939342839
20
173.70088201636128
10
123.18813081274421
20
173.70088201636128
10
124.99134682049764
20
173.72664224504348
10
126.79492564837335
20
173.7270050651658
10
128.57346988781143
20
173.70160765660592
10
130.37704871568718
20
173.70197047672818
10
132.15559295512526
20
173.67657306816824
10
133.95917178300095
20
173.67693588829056
10
135.73699038219451
20
173.70233329685044
10
137.54020638994794
20
173.72809352553261
10
139.34305957757911
20
173.77925116277476
10
141.1470012255771
20
173.75421657433714
10
142.92554546501523
20
173.72881916577725
10
144.7287614727687
20
173.75457939445943
10
146.53234030064436
20
173.75494221458169
10
148.31052171996018
20
173.75494221458169
10
150.1141005478359
20
173.75530503470401
10
151.89228196715172
20
173.75530503470401
10
153.69586079502744
20
173.75566785482624
10
155.47404221434326
20
173.75566785482624
10
157.2779838623413
20
173.73063326638862
10
159.0558024615348
20
173.75603067494859
10
160.85974410953281
20
173.73099608651097
10
162.66296011728622
20
173.75675631519314
10
164.44150435672429
20
173.73135890663315
10
166.24508318460002
20
173.73172172675544
10
168.02362742403812
20
173.70632431819558
10
169.82720625191388
20
173.70668713831782
10
171.60538767122969
20
173.70668713831782
10
173.40896649910545
20
173.70704995844017
10
175.18678509829894
20
173.73244736700008
10
176.99072674629693
20
173.7074127785624
10
178.79466839429494
20
173.68237819012478
10
180.57321263373302
20
173.65698078156493
10
182.37679146160875
20
173.65734360168722
10
184.15497288092462
20
173.65734360168716
10
185.958188888678
20
173.68310383036936
10
187.76213053667601
20
173.65806924193174
10
189.54067477611414
20
173.63267183337186
10
191.31921901555219
20
173.60727442481198
10
193.12279784342792
20
173.60763724493424
10
194.90061644262147
20
173.63303465349418
10
196.70419527049714
20
173.63339747361641
10
200.00622120340739
20
173.65516668095347
10
202.54668769964275
20
173.64065387606212
10
204.32523193908082
20
173.61525646750223
10
206.12881076695655
20
173.6156192876245
10
207.90699218627239
20
173.6156192876245
10
209.71057101414812
20
173.61598210774673
10
211.4887524334639
20
173.61598210774673
10
213.29269408146192
20
173.59094751930911
10
215.07087550077773
20
173.59094751930911
10
216.87481714877575
20
173.56591293087155
10
218.65299856809159
20
173.56591293087149
10
220.45621457584497
20
173.59167315955369
10
222.23185625430477
20
173.76945501947304
10
223.79597380147283
20
174.52847471529202
10
225.4631322633696
20
175.18735605736049
10
226.9220319750751
20
176.19889855828939
10
228.38020604653619
20
177.26123587633808
10
230.04845296879975
20
177.84392499272684
10
231.79833441857741
20
178.04674144108384
10
233.57506455740409
20
178.14833107532337
10
235.37864338527976
20
178.14869389544577
10
237.15718762471789
20
178.12329648688581
10
238.96112927271591
20
178.09826189844813
10
240.73931069203167
20
178.09826189844819
10
242.54325234002974
20
178.07322731001057
10
244.32143375934547
20
178.07322731001057
10
246.12501258722122
20
178.07359013013283
10
247.90319400653709
20
178.07359013013291
10
249.70677283441285
20
178.07395295025515
10
251.48495425372863
20
178.07395295025515
10
253.28853308160433
20
178.07431577037738
10
255.06671450092011
20
178.07431577037732
10
256.87029332879581
20
178.07467859049964
10
258.64883756823394
20
178.04928118193976
10
260.4524163961097
20
178.04964400206202
10
262.23059781542543
20
178.04964400206202
10
264.03381382317895
20
178.0754042307442
10
265.81199524249473
20
178.0754042307442
10
267.6148484301259
20
178.12656186798634
10
269.41770161775702
20
178.1777195052284
10
271.19515739682828
20
178.22851432234827
10
272.99837340458174
20
178.25427455103045
10
274.8015894123352
20
178.28003477971265
10
276.6051682402109
20
178.28039759983488
10
278.38371247964892
20
178.25500019127503
10
280.18765412764702
20
178.22996560283741
10
281.9661983670851
20
178.20456819427747
10
283.77050283520543
20
178.15413619727997
10
285.57480730332571
20
178.10370420028244
10
287.37874895132359
20
178.07866961184482
10
289.15765601088407
20
178.02787479472499
10
290.96196047900429
20
177.97744279772752
10
292.71764705073849
20
177.77390070912588
10
294.47623618345096
20
177.3671793520451
10
296.18657023989965
20
176.78195049480038
10
297.77281981452694
20
175.99172826846507
10
299.28505408420835
20
175.04803313040333
10
300.6978756403837
20
173.95050226049301
10
301.96085248605573
20
172.67301260992966
10
303.07325898097969
20
171.26635899583306
10
304.03473230503334
20
169.75593882676316
10
304.81951222953444
20
168.16678669115745
10
305.42796157460543
20
166.47350518045619
10
305.85935470000157
20
164.7268891117792
10
306.08756855691843
20
162.97737048212383
10
306.16412360272045
20
161.17488011461489
10
306.21491841984027
20
159.39742433554369
10
306.26607605708233
20
157.59457114791252
10
306.29183628576453
20
155.79135514015911
10
306.26680169732691
20
153.9874134921611
10
306.29256192600911
20
152.18419748440766
10
306.41954896880867
20
150.40783016570327
10
306.34371956325117
20
148.60316287746065
10
306.47070660605078
20
146.82679555875632
10
306.39487720049328
20
145.02212827051372
10
306.47106942617302
20
143.24503531156478
10
306.49682965485522
20
141.44181930381134
10
306.57302188053501
20
139.6647263448624
10
306.4460348377354
20
137.88473082493513
10
306.44639765785769
20
136.08115199705941
10
306.54798729209733
20
134.30442185823273
10
306.37020543217795
20
132.52370069806094
10
305.32201809889835
20
131.2131944163697
10
304.04452844833497
20
129.95021757069776
10
302.76703879777165
20
128.68724072502573
10
301.51530937589047
20
127.39922929091614
10
300.3923810974203
20
125.98604491461842
10
299.52524100516058
20
124.44950169674402
10
299.11815682795742
20
122.71630997259146
10
298.68567524219446
20
120.98275542831664
10
298.81193664474949
20
119.2571829267321
10
298.6087573762702
20
117.476098946438
10
298.60912019639255
20
115.67252011856228
10
298.71070983063214
20
113.8957899797356
10
298.73647005931434
20
112.09257397198216
10
298.71143547087667
20
110.28863232398416
10
298.63524324519699
20
108.50936244430152
10
298.63560606531928
20
106.70578361642576
10
298.71179829099901
20
104.92869065747682
10
298.66100347387925
20
103.1497835979164
10
298.78835333680098
20
101.34801887065214
10
298.86490838260295
20
99.545528503143274
10
298.73792133980351
20
97.765532983216005
10
298.68712652268368
20
95.986625923655637
10
298.66209193424601
20
94.18268427565765
10
298.68785216292815
20
92.379468267904201
10
298.68821498305044
20
90.575889440028462
10
298.68821498305056
20
88.797708020712633
10
298.66318039461288
20
86.993766372714646
10
298.71397521173276
20
85.216310593643414
10
298.86672248321446
20
83.414908686501406
10
298.81592766609458
20
81.63600162694101
10
298.68930344341732
20
79.830608698453872
10
298.66390603485746
20
78.052064459015781
10
298.71506367209952
20
76.249211271384624
10
298.71506367209952
20
74.47102985206881
10
298.74082390078172
20
72.667813844315376
10
298.7157893123441
20
70.863872196317374
10
298.7157893123441
20
69.08569077700156
10
298.7415495410263
20
67.282474769248125
10
298.79270717826836
20
65.479621581616968
10
298.81846740695056
20
63.676405573863526
10
298.74227518127094
20
61.897135694180875
10
298.76803540995309
20
60.093919686427427
10
298.71760341295555
20
58.289615218307148
10
298.69256882451788
20
56.485673570309132
10
298.69293164464023
20
54.682094742433414
10
298.74372646176005
20
52.904638963362167
10
298.74408928188234
20
51.101060135486442
10
298.66789705620261
20
49.321790255803784
10
298.74445210200463
20
47.519299888294917
10
298.66825987632484
20
45.740030008612251
10
298.71905469344466
20
43.962574229541005
10
298.71941751356695
20
42.158995401665294
10
298.66898551656948
20
40.354690933545001
10
298.64395092813186
20
38.550749285546992
10
298.66934833669171
20
36.772930686353462
10
298.72050597393377
20
34.970077498722311
10
298.67007397693624
20
33.165773030602026
10
298.69547138549615
20
31.387954431408495
10
298.59424457137879
20
29.582924323043635
10
298.69619702574073
20
27.780796775657063
10
298.72159443430058
20
26.002978176463529
10
299.15262473957455
20
24.281759516346369
10
299.81150608164307
20
22.614601054449576
10
300.77297940569673
20
21.104180885379641
10
301.88538590062058
20
19.69752727128305
0
ENDSEC
0
SECTION
2
OBJECTS
0
DICTIONARY
5
C
100
AcDbDictionary
3
ACAD_GROUP
350
D
3
ACAD_MLINESTYLE
350
17
0
DICTIONARY
5
D
100
AcDbDictionary
0
DICTIONARY
5
1A
330
C
100
AcDbDictionary
0
DICTIONARY
5
17
100
AcDbDictionary
0
ENDSEC
0
EOF
