0
SECTION
2
HEADER
9
$INSUNITS
70
4
9
$ACADVER
1
AC1014
9
$HANDSEED
5
FFFF
0
ENDSEC
0
SECTION
2
TABLES
0
TABLE
2
VPORT
5
8
100
AcDbSymbolTable
0
ENDTAB
0
TABLE
2
LTYPE
5
5
100
AcDbSymbolTable
0
LTYPE
5
14
100
AcDbSymbolTableRecord
100
AcDbLinetypeTableRecord
2
BYBLOCK
70
0
0
LTYPE
5
15
100
AcDbSymbolTableRecord
100
AcDbLinetypeTableRecord
2
BYLAYER
70
0
0
ENDTAB
0
TABLE
2
LAYER
5
2
100
AcDbSymbolTable
70
2
0
LAYER
5
50
100
AcDbSymbolTableRecord
100
AcDbLayerTableRecord
2
0
70
0
6
CONTINUOUS
0
ENDTAB
0
TABLE
2
STYLE
5
3
100
AcDbSymbolTable
70
1
0
STYLE
5
11
100
AcDbSymbolTableRecord
100
AcDbTextStyleTableRecord
2
STANDARD
70
0
0
ENDTAB
0
TABLE
2
VIEW
5
6
100
AcDbSymbolTable
70
0
0
ENDTAB
0
TABLE
2
UCS
5
7
100
AcDbSymbolTable
70
0
0
ENDTAB
0
TABLE
2
APPID
5
9
100
AcDbSymbolTable
70
2
0
APPID
5
12
100
AcDbSymbolTableRecord
100
AcDbRegAppTableRecord
2
ACAD
70
0
0
ENDTAB
0
TABLE
2
DIMSTYLE
5
A
100
AcDbSymbolTable
70
1
0
ENDTAB
0
TABLE
2
BLOCK_RECORD
5
1
100
AcDbSymbolTable
70
1
0
BLOCK_RECORD
5
1F
100
AcDbSymbolTableRecord
100
AcDbBlockTableRecord
2
*MODEL_SPACE
0
BLOCK_RECORD
5
1B
100
AcDbSymbolTableRecord
100
AcDbBlockTableRecord
2
*PAPER_SPACE
0
ENDTAB
0
ENDSEC
0
SECTION
2
BLOCKS
0
BLOCK
5
20
100
AcDbEntity
100
AcDbBlockBegin
2
*MODEL_SPACE
0
ENDBLK
5
21
100
AcDbEntity
100
AcDbBlockEnd
0
BLOCK
5
1C
100
AcDbEntity
100
AcDbBlockBegin
2
*PAPER_SPACE
0
ENDBLK
5
1D
100
AcDbEntity
100
AcDbBlockEnd
0
ENDSEC
0
SECTION
2
ENTITIES
0
LWPOLYLINE
5
100
100
AcDbEntity
8
0
100
AcDbPolyline
90
123
70
1
43
0.0
10
67.698111787896551
20
135.01788637746421
10
71.152006951621729
20
135.73559066057527
10
74.646392057488839
20
136.04180015078447
10
78.148370461761118
20
136.14336912247563
10
81.643707598436066
20
136.16902805817219
10
85.162134324576741
20
136.16716989267147
10
88.682774806583154
20
136.19061507250225
10
92.201201532723843
20
136.18875690700162
10
95.717414502998707
20
136.1615953961693
10
99.240268740870917
20
136.21034392133157
10
102.76090922287737
20
136.23378910116247
10
106.26162590209177
20
136.02950417300951
10
109.49224141762215
20
134.77797503199287
10
112.90945476243671
20
134.78497188995519
10
116.39467515059052
20
134.40356354448147
10
119.92512268686801
20
134.2476715511259
10
123.32748207717972
20
133.21058998289814
10
126.60646757944991
20
133.96909390240137
10
130.07745340160116
20
133.71641603945093
10
133.58481134841296
20
133.58804114729256
10
137.12190015228771
20
133.50805918993146
10
140.65456144443095
20
133.37747054190731
10
144.16413314710852
20
133.27439899508056
10
147.69679443925179
20
133.14381034705647
10
151.20857989779509
20
133.06604214556106
10
154.71593784460674
20
132.93766725340271
10
158.24859913674999
20
132.80707860537856
10
161.75595708356167
20
132.6787037132201
10
165.26774254210497
20
132.6009355117248
10
168.77510048891668
20
132.47256061956648
10
172.30997553692578
20
132.36727531687382
10
175.82176099546902
20
132.28950711537851
10
179.32911894228073
20
132.16113222322014
10
182.86620774615554
20
132.08115026585901
10
186.36913818123571
20
131.90216868303759
10
189.90622698511055
20
131.82218672567654
10
193.44552954485118
20
131.76750811364687
10
196.93074993300499
20
131.38609976817324
10
200.01049740735402
20
129.86730260783858
10
203.19586282670329
20
130.43002103228696
10
206.65577986952565
20
130.05082644267907
10
210.10619955232704
20
130.4373734806145
10
213.62241252260191
20
130.41021196978207
10
215.635898115988
20
132.73276314580096
10
215.86643842028036
20
135.95071551463687
10
215.84520699631528
20
139.49665934197486
10
213.44991157097553
20
141.26153899377724
10
210.13517333254504
20
141.5515410121958
10
206.64773918852546
20
141.90764601233803
10
203.09198830691642
20
142.06575176155945
10
199.65199506688634
20
142.67267645915109
10
196.60707124594708
20
141.38375431849369
10
193.26481590631928
20
141.65066674744654
10
189.74543714937079
20
141.93307546745984
10
186.22605839242229
20
142.21548418747324
10
182.70667963547385
20
142.49789290748654
10
179.18730087852535
20
142.78030162749988
10
175.66792212157682
20
143.0627103475133
10
172.14854336462832
20
143.34511906752655
10
168.6291646076798
20
143.62752778753998
10
165.13508919606278
20
143.90772275168746
10
161.61571043911434
20
144.19013147170088
10
158.09633168216584
20
144.47254019171427
10
154.57695292521734
20
144.75494891172761
10
151.05757416826884
20
145.03735763174092
10
147.53598165545455
20
145.29446300642277
10
144.01660289850605
20
145.57687172643611
10
140.49722414155752
20
145.8592804464493
10
136.97563162874326
20
146.11638582113113
10
133.48155621712624
20
146.39658078527876
10
129.9621774601778
20
146.67898950529212
10
126.44058494736345
20
146.93609487997401
10
123.02937053358863
20
147.87196306687554
10
117.62047651173822
20
147.24880794943576
10
112.61736509794272
20
148.34944610121372
10
109.28334539327786
20
147.54476300277898
10
105.85032606315264
20
146.77423827313913
10
102.41349860979611
20
147.12591576154961
10
98.896333608713419
20
147.43362782689445
10
95.406685708828036
20
147.76442948170518
10
91.921465320674244
20
148.14583782717887
10
88.43845868838622
20
148.55254951798412
10
84.927934954900905
20
148.93617161932349
10
81.417411221415534
20
149.31979372066297
10
77.909101243795945
20
149.72871916733399
10
74.432735879105323
20
150.2113408941338
10
71.006025174269936
20
150.97008566371466
10
67.688430843415944
20
152.10173934567106
10
64.562504190135357
20
153.67557070840033
10
61.587445578036139
20
155.51667009044738
10
58.676276191794742
20
157.50516203275214
10
55.4137160633354
20
158.68299489364003
10
51.941778210376413
20
159.21622331110288
10
48.435681988622576
20
159.65045210310547
10
44.931799522734664
20
160.10998424043947
10
41.451006646312379
20
160.54199927657635
10
37.947124180424453
20
161.00153141391021
10
34.464117548136478
20
161.4082431047155
10
30.90615291066165
20
161.54104550860546
10
27.461112770399613
20
160.92455460682049
10
24.144493418410949
20
159.73589381668137
10
21.154294105616295
20
157.90674640059865
10
18.6236728262706
20
155.50195361523791
10
16.711090919960508
20
152.58414296139915
10
15.708167720527545
20
149.28078319654782
10
15.069298410006976
20
145.76709367638881
10
15.379935411947724
20
142.32331526118475
10
16.41456237423187
20
138.99467509905921
10
18.190889343785756
20
135.98359995266469
10
20.510917069688773
20
133.35840655959026
10
23.341748908203964
20
131.32594919421993
10
26.556868132673937
20
129.89729663588241
10
29.964916759775161
20
129.21667565816196
10
33.497578051918396
20
129.08608701013779
10
37.047949390987938
20
129.157925124766
10
40.579658652323403
20
129.3078870312543
10
44.072782033132576
20
129.3082426216194
10
47.623153372202083
20
129.38008073624744
10
51.146007610074307
20
129.42882926140982
10
54.672337328870299
20
129.80873503174786
10
58.097763360590363
20
130.78390027990577
10
61.196769353116323
20
132.39955215400744
10
64.404582025373628
20
133.80170848612761
0
CIRCLE
5
101
100
AcDbEntity
8
0
100
AcDbCircle
10
31.518988388778499
20
145.3154798122209
30
0
40
6.3499999999999979
210
0
220
0
230
1
0
ENDSEC
0
SECTION
2
OBJECTS
0
DICTIONARY
5
C
100
AcDbDictionary
3
ACAD_GROUP
350
D
3
ACAD_MLINESTYLE
350
17
0
DICTIONARY
5
D
100
AcDbDictionary
0
DICTIONARY
5
1A
330
C
100
AcDbDictionary
0
DICTIONARY
5
17
100
AcDbDictionary
0
ENDSEC
0
EOF
